<svg id="_040-sun-6" data-name="040-sun-6" xmlns="http://www.w3.org/2000/svg" width="508" height="508" viewBox="0 0 508 508">
  <g id="Group_89" data-name="Group 89">
    <g id="Group_88" data-name="Group 88">
      <path id="Path_19" data-name="Path 19" d="M254,98.3C168.2,98.3,98.3,168.1,98.3,254c0,85.8,69.8,155.7,155.7,155.7,85.8,0,155.7-69.8,155.7-155.7C409.7,168.2,339.8,98.3,254,98.3Zm0,295c-76.8,0-139.3-62.5-139.3-139.3S177.2,114.7,254,114.7,393.3,177.2,393.3,254,330.8,393.3,254,393.3Z"/>
    </g>
  </g>
  <g id="Group_91" data-name="Group 91">
    <g id="Group_90" data-name="Group 90">
      <rect id="Rectangle_38" data-name="Rectangle 38" width="16.4" height="65.5" transform="translate(245.8)"/>
    </g>
  </g>
  <g id="Group_93" data-name="Group 93">
    <g id="Group_92" data-name="Group 92">
      <rect id="Rectangle_39" data-name="Rectangle 39" width="16.4" height="65.5" transform="translate(245.8 442.5)"/>
    </g>
  </g>
  <g id="Group_95" data-name="Group 95">
    <g id="Group_94" data-name="Group 94">
      <rect id="Rectangle_40" data-name="Rectangle 40" width="16.4" height="41.001" transform="translate(158.621 45.235) rotate(-22.5)"/>
    </g>
  </g>
  <g id="Group_97" data-name="Group 97">
    <g id="Group_96" data-name="Group 96">
      <rect id="Rectangle_41" data-name="Rectangle 41" width="16.4" height="41.001" transform="translate(318.532 431.212) rotate(-22.5)"/>
    </g>
  </g>
  <g id="Group_99" data-name="Group 99">
    <g id="Group_98" data-name="Group 98">
      <path id="Path_20" data-name="Path 20" d="M45.2,158.6l-6.3,15.2,37.9,15.7L83,174.3Z"/>
    </g>
  </g>
  <g id="Group_101" data-name="Group 101">
    <g id="Group_100" data-name="Group 100">
      <rect id="Rectangle_42" data-name="Rectangle 42" width="16.4" height="41.001" transform="translate(424.999 333.64) rotate(-67.5)"/>
    </g>
  </g>
  <g id="Group_103" data-name="Group 103">
    <g id="Group_102" data-name="Group 102">
      <rect id="Rectangle_43" data-name="Rectangle 43" width="40.999" height="16.4" transform="translate(318.549 76.817) rotate(-67.492)"/>
    </g>
  </g>
  <g id="Group_105" data-name="Group 105">
    <g id="Group_104" data-name="Group 104">
      <rect id="Rectangle_44" data-name="Rectangle 44" width="40.999" height="16.399" transform="translate(158.681 462.797) rotate(-67.492)"/>
    </g>
  </g>
  <g id="Group_107" data-name="Group 107">
    <g id="Group_106" data-name="Group 106">
      <rect id="Rectangle_45" data-name="Rectangle 45" width="41.001" height="16.4" transform="translate(38.949 334.267) rotate(-22.5)"/>
    </g>
  </g>
  <g id="Group_109" data-name="Group 109">
    <g id="Group_108" data-name="Group 108">
      <path id="Path_21" data-name="Path 21" d="M462.8,158.6,425,174.3l6.2,15.2,37.9-15.7Z"/>
    </g>
  </g>
  <g id="Group_111" data-name="Group 111">
    <g id="Group_110" data-name="Group 110">
      <rect id="Rectangle_46" data-name="Rectangle 46" width="65.499" height="16.4" transform="translate(381.448 114.901) rotate(-45)"/>
    </g>
  </g>
  <g id="Group_113" data-name="Group 113">
    <g id="Group_112" data-name="Group 112">
      <rect id="Rectangle_47" data-name="Rectangle 47" width="65.499" height="16.4" transform="translate(68.597 427.756) rotate(-45)"/>
    </g>
  </g>
  <g id="Group_115" data-name="Group 115">
    <g id="Group_114" data-name="Group 114">
      <path id="Path_22" data-name="Path 22" d="M483.4,245.8H442.5v16.4H508V245.8Z"/>
    </g>
  </g>
  <g id="Group_117" data-name="Group 117">
    <g id="Group_116" data-name="Group 116">
      <path id="Path_23" data-name="Path 23" d="M393.1,381.5l-11.6,11.6L410.4,422l17.4,17.4,11.6-11.6Z"/>
    </g>
  </g>
  <g id="Group_119" data-name="Group 119">
    <g id="Group_118" data-name="Group 118">
      <path id="Path_24" data-name="Path 24" d="M24.6,245.8H0v16.4H65.5V245.8Z"/>
    </g>
  </g>
  <g id="Group_121" data-name="Group 121">
    <g id="Group_120" data-name="Group 120">
      <path id="Path_25" data-name="Path 25" d="M97.6,86,80.2,68.6,68.6,80.2l46.3,46.3L126.5,115Z"/>
    </g>
  </g>
</svg>
