<svg xmlns="http://www.w3.org/2000/svg" width="508.1" height="347.5" viewBox="0 0 508.1 347.5">
  <g id="_039-cloudy-night-1" data-name="039-cloudy-night-1" transform="translate(0 -80.3)">
    <g id="Group_93" data-name="Group 93">
      <g id="Group_92" data-name="Group 92">
        <path id="Path_21" data-name="Path 21" d="M508.1,132.6h-55l-17-52.3-17,52.3h-55l44.5,32.3-17,52.3,44.5-32.3,44.5,32.3-17-52.3Zm-59,41.6-13.2-9.6-13.2,9.6,5-15.5-13.2-9.6H431l5-15.5,5,15.5h16.3l-13.2,9.6Z"/>
      </g>
    </g>
    <g id="Group_95" data-name="Group 95">
      <g id="Group_94" data-name="Group 94">
        <path id="Path_22" data-name="Path 22" d="M434,267.3c-56.4,0-102.4-46-102.4-102.5,0-34.7,27.3-73.9,27.3-73.9l-23.1,9.8a118.775,118.775,0,0,0-72.7,109.6,96.113,96.113,0,0,0,.7,11.9h-.5a81.071,81.071,0,0,0-25.8,4.2A106.964,106.964,0,0,0,57.8,296.8a65.741,65.741,0,0,0,8,131H345.5A65.852,65.852,0,0,0,411.3,362a65.123,65.123,0,0,0-9.8-34.4A118.792,118.792,0,0,0,484.2,271L497,249.5S465.2,267.3,434,267.3ZM345.6,411.4H65.8a49.4,49.4,0,1,1,0-98.8H74v-8.2a90.6,90.6,0,0,1,90.5-90.5c45.3,0,68.9,31.6,68.9,31.6s15.1-6.9,29.9-6.9a65.852,65.852,0,0,1,65.8,65.8v8.2h16.5a49.4,49.4,0,1,1,0,98.8Zm43.3-98.8c-26.9-20.4-43.8-16.4-43.8-16.4A82.7,82.7,0,0,0,280.5,224c-.6-4.6-8.5-59.1,40.6-96.2A118.909,118.909,0,0,0,434.2,283.7a116.374,116.374,0,0,0,21.3-1.9A102.494,102.494,0,0,1,388.9,312.6Z"/>
      </g>
    </g>
    <g id="Group_97" data-name="Group 97">
      <g id="Group_96" data-name="Group 96">
        <path id="Path_23" data-name="Path 23" d="M90.5,304.4H107a57.615,57.615,0,0,1,57.6-57.6V230.3A74.26,74.26,0,0,0,90.5,304.4Z"/>
      </g>
    </g>
  </g>
</svg>
