<svg xmlns="http://www.w3.org/2000/svg" width="507.9" height="335.8" viewBox="0 0 507.9 335.8">
  <g id="_041-cloud-5" data-name="041-cloud-5" transform="translate(0 -86.05)">
    <g id="Group_89" data-name="Group 89">
      <g id="Group_88" data-name="Group 88">
        <path id="Path_19" data-name="Path 19" d="M319.5,127.05v16.4a90.178,90.178,0,0,1,90.1,90.1H426C426.1,174.85,378.3,127.05,319.5,127.05Z"/>
      </g>
    </g>
    <g id="Group_91" data-name="Group 91">
      <g id="Group_90" data-name="Group 90">
        <path id="Path_20" data-name="Path 20" d="M466.1,249.05a142.388,142.388,0,0,0,.9-15.5c0-81.3-66.1-147.5-147.5-147.5A147.081,147.081,0,0,0,200,147.15a106.3,106.3,0,0,0-134.2,94.9,73.69,73.69,0,0,0-.3,146.5,98.255,98.255,0,0,0,147,.5H434.2a73.768,73.768,0,0,0,73.7-73.7C508,287.15,491.4,261.25,466.1,249.05Zm-31.8,123.8H205s-22.9,32.8-65.7,32.8c-41.9,0-65.6-32.7-65.6-32.7l-3.6-.2a57.358,57.358,0,0,1,3.7-114.6H82v-8.2a90.178,90.178,0,0,1,90.1-90.1,99.959,99.959,0,0,1,34.7,6.8l3.5-5.2a131.017,131.017,0,0,1,240.4,72.2,128.131,128.131,0,0,1-2.6,25.9l6.2,2.3a57.3,57.3,0,0,1-20,111Z"/>
      </g>
    </g>
  </g>
</svg>
