<svg xmlns="http://www.w3.org/2000/svg" width="508" height="237.6" viewBox="0 0 508 237.6">
  <g id="_065-cloudy-4" data-name="065-cloudy-4" transform="translate(0 -135.2)">
    <g id="Group_99" data-name="Group 99">
      <g id="Group_98" data-name="Group 98">
        <path id="Path_24" data-name="Path 24" d="M368.7,168v16.4a49.293,49.293,0,0,1,49.2,49.2h16.4A65.638,65.638,0,0,0,368.7,168Z"/>
      </g>
    </g>
    <g id="Group_101" data-name="Group 101">
      <g id="Group_100" data-name="Group 100">
        <path id="Path_25" data-name="Path 25" d="M466.2,246.2a90.25,90.25,0,0,0,.8-12.7,98.233,98.233,0,0,0-172.9-63.9A72.858,72.858,0,0,0,223,193.5a59.78,59.78,0,0,0-53.1-16.3A78.658,78.658,0,0,0,32.1,229.1a86.518,86.518,0,0,0,.5,8.8A53.11,53.11,0,0,0,53.1,340h70.5a65.558,65.558,0,0,0,56.7,32.8H442.5a65.523,65.523,0,0,0,23.7-126.6ZM116.9,323.6H53.1a36.789,36.789,0,0,1-36.7-36.7c0-35,34.9-37.4,34.9-37.4s-2.9-11.7-2.9-20.3a62.374,62.374,0,0,1,62.3-62.3c35.2,0,52.9,29,52.9,29s32.4-9.2,49.8,11.5a15.453,15.453,0,0,0-1.2,2.2c-28.5-3.7-49.4,14.9-54.9,36.3a65.827,65.827,0,0,0-42.7,61.4A67.5,67.5,0,0,0,116.9,323.6Zm325.6,32.8H180.3a49.293,49.293,0,0,1-49.2-49.2c0-44.1,40.7-48.7,40.7-48.7l.8-5.2a32.789,32.789,0,0,1,32.3-28c8.3,0,17.2,4,17.2,4l2.7-7.3a57.677,57.677,0,0,1,53.8-37.7,70.05,70.05,0,0,1,21.7,4s19.8-36.7,68.5-36.7a82.005,82.005,0,0,1,81.9,81.9c0,15.7-3.3,24.3-3.3,24.3s44.2,6.1,44.2,49.5A49.122,49.122,0,0,1,442.5,356.4Z"/>
      </g>
    </g>
  </g>
</svg>
