<svg xmlns="http://www.w3.org/2000/svg" width="508" height="465.94" viewBox="0 0 508 465.94">
  <g id="_015-rain-23" data-name="015-rain-23" transform="translate(0 -21.03)">
    <g id="Group_103" data-name="Group 103">
      <g id="Group_102" data-name="Group 102">
        <path id="Path_26" data-name="Path 26" d="M450.1,158.03A147.269,147.269,0,0,0,198,65.23a108.873,108.873,0,0,0-26-3.2c-53.8,0-99,40.5-105.6,93.3a90.085,90.085,0,0,0,23.7,177H268.5a106.3,106.3,0,0,0,169.5-2.3,90.114,90.114,0,0,0,12.1-172Zm-18.4,156.6-3.3.6s-25.3,41.7-76,41.7c-49.5,0-75.6-41-75.6-41H90.1a73.711,73.711,0,0,1-14.4-146l6.2-1.2.4-6.3a90.3,90.3,0,0,1,89.8-84.1,100.011,100.011,0,0,1,31.1,5.4s33.6-46.4,100-46.4a130.45,130.45,0,0,1,130.9,126.8l.2,5.8s57.4,13.4,57.4,72.2A73.936,73.936,0,0,1,431.7,314.63Z"/>
      </g>
    </g>
    <g id="Group_105" data-name="Group 105">
      <g id="Group_104" data-name="Group 104">
        <path id="Path_27" data-name="Path 27" d="M295,62.03v16.4a98.415,98.415,0,0,1,98.3,98.3h16.4A114.824,114.824,0,0,0,295,62.03Z"/>
      </g>
    </g>
    <g id="Group_107" data-name="Group 107">
      <g id="Group_106" data-name="Group 106">
        <path id="Path_28" data-name="Path 28" d="M70,407.03s-46.3,18.1-53.7,32.1c-5.8,11-7.4,32,13.9,44.2,6.8,3.9,31.3,9.5,44.2-13.9C82.1,455.53,70,407.03,70,407.03Zm-10.1,54.9c-4.1,7.8-14.1,10.5-22.1,6.9-4.1-1.8-12.3-11.3-6.9-22.1,2.3-4.7,14.9-11.9,27.6-17.5C61.1,443.03,62.2,457.43,59.9,461.93Z"/>
      </g>
    </g>
    <g id="Group_109" data-name="Group 109">
      <g id="Group_108" data-name="Group 108">
        <path id="Path_29" data-name="Path 29" d="M205.5,407.13s-46.3,18.1-53.7,32.1c-5.8,11-7.4,32,13.9,44.2,6.8,3.9,31.3,9.5,44.2-13.9C217.6,455.63,205.5,407.13,205.5,407.13Zm-10.1,54.9c-4.1,7.8-14.1,10.5-22.1,6.9-4.1-1.8-12.3-11.3-6.9-22.1,2.3-4.7,14.9-11.9,27.6-17.5C196.6,443.13,197.7,457.53,195.4,462.03Z"/>
      </g>
    </g>
    <g id="Group_111" data-name="Group 111">
      <g id="Group_110" data-name="Group 110">
        <path id="Path_30" data-name="Path 30" d="M340.7,407.13s-46.3,18.1-53.7,32.1c-5.8,11-7.4,32,13.9,44.2,6.8,3.9,31.3,9.5,44.2-13.9C352.8,455.63,340.7,407.13,340.7,407.13Zm-10.2,54.9c-4.1,7.8-14.1,10.5-22.1,6.9-4.1-1.8-12.3-11.3-6.9-22.1,2.3-4.7,14.9-11.9,27.6-17.5C331.8,443.13,332.9,457.53,330.5,462.03Z"/>
      </g>
    </g>
  </g>
</svg>
