<svg xmlns="http://www.w3.org/2000/svg" width="507.9" height="464.393" viewBox="0 0 507.9 464.393">
  <g id="_019-rain-22" data-name="019-rain-22" transform="translate(0 -21.753)">
    <g id="Group_113" data-name="Group 113">
      <g id="Group_112" data-name="Group 112">
        <path id="Path_31" data-name="Path 31" d="M106.5,169.253h16.4a98.415,98.415,0,0,1,98.3-98.3v-16.4A114.824,114.824,0,0,0,106.5,169.253Z"/>
      </g>
    </g>
    <g id="Group_115" data-name="Group 115">
      <g id="Group_114" data-name="Group 114">
        <path id="Path_32" data-name="Path 32" d="M450.5,195.653A106.742,106.742,0,0,0,349,95.553a147.539,147.539,0,0,0-127.8-73.8c-78.9,0-143.6,62.3-147.3,140.7a90.137,90.137,0,0,0,16.2,178.8H434.2a73.714,73.714,0,0,0,16.3-145.6Zm-16.2,129.3H90.1a73.733,73.733,0,0,1-7.3-147.1l7.4-1.1v-7.4a131.234,131.234,0,0,1,131.1-131.1c88.4,0,118,73.7,118,73.7h4.9c49.7,0,90.1,40.4,90.1,89.8v8.1s57.4,8,57.4,57.7A57.6,57.6,0,0,1,434.3,324.953Z"/>
      </g>
    </g>
    <g id="Group_117" data-name="Group 117">
      <g id="Group_116" data-name="Group 116">
        <rect id="Rectangle_38" data-name="Rectangle 38" width="57.899" height="16.4" transform="translate(80.218 409.062) rotate(-45)"/>
      </g>
    </g>
    <g id="Group_119" data-name="Group 119">
      <g id="Group_118" data-name="Group 118">
        <rect id="Rectangle_39" data-name="Rectangle 39" width="57.899" height="16.4" transform="translate(178.595 409.005) rotate(-45)"/>
      </g>
    </g>
    <g id="Group_121" data-name="Group 121">
      <g id="Group_120" data-name="Group 120">
        <rect id="Rectangle_40" data-name="Rectangle 40" width="57.899" height="16.4" transform="translate(276.893 409.028) rotate(-45)"/>
      </g>
    </g>
    <g id="Group_123" data-name="Group 123">
      <g id="Group_122" data-name="Group 122">
        <rect id="Rectangle_41" data-name="Rectangle 41" width="57.899" height="16.4" transform="translate(375.181 409.001) rotate(-45)"/>
      </g>
    </g>
    <g id="Group_125" data-name="Group 125">
      <g id="Group_124" data-name="Group 124">
        <rect id="Rectangle_42" data-name="Rectangle 42" width="57.899" height="16.4" transform="translate(113.029 474.515) rotate(-45)"/>
      </g>
    </g>
    <g id="Group_127" data-name="Group 127">
      <g id="Group_126" data-name="Group 126">
        <rect id="Rectangle_43" data-name="Rectangle 43" width="57.899" height="16.4" transform="translate(211.361 474.527) rotate(-45)"/>
      </g>
    </g>
    <g id="Group_129" data-name="Group 129">
      <g id="Group_128" data-name="Group 128">
        <rect id="Rectangle_44" data-name="Rectangle 44" width="57.899" height="16.4" transform="translate(309.702 474.55) rotate(-45)"/>
      </g>
    </g>
  </g>
</svg>
