<svg xmlns="http://www.w3.org/2000/svg" width="507.9" height="502.6" viewBox="0 0 507.9 502.6">
  <g id="_020-storm-11" data-name="020-storm-11" transform="translate(0 -2.65)">
    <g id="Group_131" data-name="Group 131">
      <g id="Group_130" data-name="Group 130">
        <path id="Path_33" data-name="Path 33" d="M106.5,150.15h16.4a98.415,98.415,0,0,1,98.3-98.3V35.45A114.825,114.825,0,0,0,106.5,150.15Z"/>
      </g>
    </g>
    <g id="Group_133" data-name="Group 133">
      <g id="Group_132" data-name="Group 132">
        <path id="Path_34" data-name="Path 34" d="M450.5,176.55A106.573,106.573,0,0,0,349,76.55,147.422,147.422,0,0,0,221.2,2.65c-78.9,0-143.6,62.3-147.3,140.7a90.137,90.137,0,0,0,16.2,178.8H152l-43.4,73.5h74L146,505.25l198.3-183.1h89.9a73.714,73.714,0,0,0,16.3-145.6ZM181.7,450.05l23.6-70.7h-68l96.8-163.9h78.6l-47.5,73.7H356Zm252.6-144.2H362.1l35.8-33H295.2l47.5-73.7h-118l-63.1,106.8H90.1a73.733,73.733,0,0,1-7.3-147.1l7.4-1.1v-7.4A131.234,131.234,0,0,1,221.3,19.25c84.6,0,118,73.7,118,73.7h4.9c49.7,0,90.1,40.4,90.1,89.8v8.1s57.4,6.1,57.4,57.7A57.574,57.574,0,0,1,434.3,305.85Z"/>
      </g>
    </g>
  </g>
</svg>
