<svg id="_092-snowflake" data-name="092-snowflake" xmlns="http://www.w3.org/2000/svg" width="508" height="508" viewBox="0 0 508 508">
  <g id="Group_134" data-name="Group 134">
    <path id="Path_35" data-name="Path 35" d="M508,245.8H470.4L489.2,227l-11.6-11.6-30.4,30.4H404.8L440,210.6,428.5,199l-46.8,46.8H335.5a81.166,81.166,0,0,0-18.1-43.6l32.7-32.7h66.1V153.1H366.5l30-30h43V106.7H412.9l26.6-26.6L427.9,68.5,401.3,95.1V68.6H384.9v43l-30,30V91.8H338.5v66.1l-32.7,32.7a81.488,81.488,0,0,0-43.6-18.1V126.3L309,79.5,297.4,67.9l-35.2,35.2V60.7l30.4-30.4L281,18.8,262.2,37.6V0H245.8V37.6L227,18.8,215.4,30.4l30.4,30.4v42.4L210.6,68,199,79.5l46.8,46.8v46.2a81.166,81.166,0,0,0-43.6,18.1l-32.7-32.7V91.8H153.1v49.7l-30-30v-43H106.7V95.1L80.2,68.6,68.6,80.2l26.6,26.6H68.6v16.4h43l30,30H91.8v16.4h66.1l32.7,32.7a81.488,81.488,0,0,0-18.1,43.6H126.3L79.5,199,67.9,210.6l35.2,35.2H60.7L30.3,215.4,18.8,227l18.8,18.8H0v16.4H37.6L18.8,281l11.6,11.6,30.4-30.4h42.4L68,297.4,79.5,309l46.8-46.8h46.2a81.166,81.166,0,0,0,18.1,43.6l-32.7,32.7H91.8v16.4h49.7l-30,30h-43v16.4H95.1L68.5,427.9l11.6,11.6,26.6-26.6v26.6h16.4v-43l30-30v49.7h16.4V350.1l32.7-32.7a81.488,81.488,0,0,0,43.6,18.1v46.2L199,428.5l11.6,11.6,35.2-35.2v42.4l-30.4,30.4L227,489.3l18.8-18.8V508h16.4V470.4L281,489.2l11.6-11.6-30.4-30.4V404.8L297.4,440,309,428.4l-46.8-46.8V335.4a81.166,81.166,0,0,0,43.6-18.1L338.5,350v66.1h16.4V366.4l30,30v43h16.4V412.8l26.6,26.6,11.6-11.6-26.6-26.6h26.6V384.8h-43l-30-30h49.7V338.4H350.1l-32.7-32.7a81.488,81.488,0,0,0,18.1-43.6h46.2l46.8,46.8,11.6-11.6-35.2-35.2h42.4l30.4,30.4,11.6-11.6-18.8-18.8H508ZM254,319.5A65.5,65.5,0,1,1,319.5,254,65.6,65.6,0,0,1,254,319.5Z"/>
  </g>
</svg>
