<svg xmlns="http://www.w3.org/2000/svg" width="24" height="25.285" viewBox="0 0 24 25.285">
  <path id="_003-moon" data-name="003-moon" d="M26.93,21.366A10.658,10.658,0,0,1,16.584,3.7l.838-.887-1.22.052a12.621,12.621,0,1,0,11.27,19.238l.642-1.039ZM19.779,26.7A11.63,11.63,0,1,1,15.058,3.97a11.644,11.644,0,0,0,10.9,18.6A11.591,11.591,0,0,1,19.779,26.7ZM17.248,9.215l2.429-.69.743-2.412.69,2.428,2.413.743-2.429.69-.743,2.412-.69-2.428Zm5.282,4.157,1.688-.553.455-1.716.553,1.687,1.717.457-1.688.552L24.8,15.515l-.552-1.687Z" transform="translate(-4.115 -2.816)"/>
</svg>
