<svg xmlns="http://www.w3.org/2000/svg" width="25.009" height="22.954" viewBox="0 0 25.009 22.954">
  <g id="Group_63" data-name="Group 63" transform="translate(-868.871 -305.571)">
    <path id="Path_10" data-name="Path 10" d="M874.07,307.209c0,.365.008.73,0,1.094a7.126,7.126,0,0,0,.385,2.456,13.9,13.9,0,0,1,.541,1.9,5.146,5.146,0,0,1,.012,2.17,5.272,5.272,0,0,1-.625,1.471c-.248.41-.509.813-.761,1.22a3.559,3.559,0,0,0-.559,1.3,3.466,3.466,0,0,0,.039,1.088,13.1,13.1,0,0,0,.545,1.9,7.929,7.929,0,0,1,.423,2.421c0,.1.045.1.122.1q1.423,0,2.846,0h.094c.048,0,.055.023.024.058s-.038.04-.058.06l-3.973,3.973c-.1.1-.1.1-.2,0l-3.981-3.98a.2.2,0,0,1-.022-.022c-.018-.024-.06-.039-.044-.074s.05-.014.076-.016.056,0,.083,0c.935,0,1.87,0,2.8,0,.095,0,.124-.013.124-.124a7.453,7.453,0,0,0-.5-2.3,10.607,10.607,0,0,1-.479-1.9,4.771,4.771,0,0,1,.413-2.831c.3-.613.692-1.172,1.048-1.752a4.62,4.62,0,0,0,.476-.97,2.4,2.4,0,0,0,.065-.979,7.886,7.886,0,0,0-.421-1.727,12.51,12.51,0,0,1-.5-1.86,6.341,6.341,0,0,1-.095-.994c0-1.07,0-2.141,0-3.211,0-.093.025-.127.123-.126q.928.006,1.856,0c.094,0,.126.028.125.124C874.068,306.2,874.07,306.7,874.07,307.209Z" transform="translate(0 -0.002)" />
    <path id="Path_11" data-name="Path 11" d="M972.538,307.2c0,.368.008.737,0,1.1a7.11,7.11,0,0,0,.383,2.446,14,14,0,0,1,.541,1.9,5.153,5.153,0,0,1,.014,2.17,5.255,5.255,0,0,1-.624,1.472c-.248.41-.508.813-.761,1.22a3.577,3.577,0,0,0-.56,1.3,3.477,3.477,0,0,0,.039,1.1,12.137,12.137,0,0,0,.52,1.821,9.471,9.471,0,0,1,.4,1.711,5.237,5.237,0,0,1,.049.737c0,.149,0,.15.146.15H975.5c.028,0,.056,0,.083,0s.045-.006.054.018-.013.037-.026.052-.034.035-.051.052l-3.966,3.966c-.1.1-.1.1-.208,0l-3.966-3.966a.219.219,0,0,1-.022-.022c-.02-.026-.068-.045-.055-.081s.061-.02.094-.02h1.345c.514,0,1.028,0,1.543,0,.082,0,.108-.014.107-.109a7.82,7.82,0,0,0-.54-2.43,10.041,10.041,0,0,1-.443-1.787,4.762,4.762,0,0,1,.412-2.821c.3-.617.7-1.178,1.054-1.761a4.614,4.614,0,0,0,.472-.961,2.388,2.388,0,0,0,.067-.979,8.148,8.148,0,0,0-.439-1.786,12.182,12.182,0,0,1-.477-1.8,6.356,6.356,0,0,1-.1-1c0-1.067,0-2.134,0-3.2,0-.1.028-.131.129-.131q.922.006,1.845,0c.1,0,.13.031.129.13C972.535,306.2,972.538,306.7,972.538,307.2Z" transform="translate(-89.085 -0.001)" />
    <path id="Path_12" data-name="Path 12" d="M1079.025,307.673h-2.459c-.143,0-.143,0-.143-.144,0-.608,0-1.216,0-1.824,0-.106.032-.135.136-.134q2.48,0,4.961,0c.106,0,.136.03.135.135q-.007.917,0,1.834c0,.106-.032.135-.136.134C1080.685,307.671,1079.855,307.673,1079.025,307.673Z" transform="translate(-187.772 0)" />
    <path id="Path_13" data-name="Path 13" d="M1079.035,414.975h2.47c.144,0,.144,0,.144.143,0,.608,0,1.216,0,1.824,0,.105-.029.136-.135.135q-2.481,0-4.961,0c-.1,0-.137-.028-.136-.134q.007-.917,0-1.834c0-.1.029-.136.135-.135C1077.382,414.977,1078.208,414.975,1079.035,414.975Z" transform="translate(-187.772 -98.977)" />
    <path id="Path_14" data-name="Path 14" d="M1079.035,524.377h2.47c.144,0,.144,0,.144.142,0,.608,0,1.216,0,1.824,0,.1-.029.136-.135.135q-2.48,0-4.961,0c-.1,0-.137-.027-.136-.134q.007-.917,0-1.834c0-.1.029-.136.135-.136C1077.382,524.379,1078.208,524.377,1079.035,524.377Z" transform="translate(-187.772 -197.954)" />
    <path id="Path_15" data-name="Path 15" d="M1099.878,360.278c.483,0,.966,0,1.448,0,.1,0,.125.029.124.125q-.005.927,0,1.855c0,.1-.03.124-.125.124q-1.448,0-2.9,0c-.1,0-.125-.029-.124-.124q.006-.928,0-1.855c0-.1.03-.125.125-.124C1098.912,360.28,1099.4,360.278,1099.878,360.278Z" transform="translate(-207.571 -49.492)" />
    <path id="Path_16" data-name="Path 16" d="M1099.878,471.78c-.483,0-.966,0-1.448,0-.1,0-.125-.029-.124-.124q.006-.927,0-1.855c0-.1.029-.124.124-.124q1.448,0,2.9,0c.1,0,.125.029.124.124q-.005.927,0,1.855c0,.1-.029.125-.124.124C1100.843,471.778,1100.361,471.78,1099.878,471.78Z" transform="translate(-207.571 -148.47)" />
  </g>
</svg>
