<svg xmlns="http://www.w3.org/2000/svg" width="25.5" height="25.5" viewBox="0 0 25.5 25.5">
  <g id="_029-sun-7" data-name="029-sun-7" transform="translate(2.271 2.271)">
    <g id="Group_2" data-name="Group 2" transform="translate(5.448 5.448)">
      <g id="Group_1" data-name="Group 1">
        <path id="Path_1" data-name="Path 1" d="M144.331,139.3a5.031,5.031,0,1,0,5.031,5.031A5.037,5.037,0,0,0,144.331,139.3Zm0,9.343a4.312,4.312,0,1,1,4.312-4.312A4.317,4.317,0,0,1,144.331,148.643Z" transform="translate(-139.3 -139.3)" stroke-width="0.5"/>
      </g>
    </g>
    <g id="Group_4" data-name="Group 4" transform="translate(10.054 -2.021)">
      <g id="Group_3" data-name="Group 3">
        <rect id="Rectangle_4" data-name="Rectangle 4" width="0.85" height="5.519"   stroke-width="0.5"/>
      </g>
    </g>
    <g id="Group_6" data-name="Group 6" transform="translate(10.054 17.46)">
      <g id="Group_5" data-name="Group 5">
        <rect id="Rectangle_5" data-name="Rectangle 5" width="0.85" height="5.519"   stroke-width="0.5"/>
      </g>
    </g>
    <g id="Group_8" data-name="Group 8" transform="translate(14.921 1.536)">
      <g id="Group_7" data-name="Group 7">
        <rect id="Rectangle_6" data-name="Rectangle 6" width="5.519" height="0.85" transform="translate(0 3.902) rotate(-45)"  stroke-width="0.5"/>
      </g>
    </g>
    <g id="Group_10" data-name="Group 10" transform="translate(1.532 14.919)">
      <g id="Group_9" data-name="Group 9" transform="translate(0 0)">
        <rect id="Rectangle_7" data-name="Rectangle 7" width="5.519" height="0.85" transform="translate(0 3.902) rotate(-45)" stroke-width="0.5"/>
      </g>
    </g>
    <g id="Group_12" data-name="Group 12" transform="translate(17.46 10.054)">
      <g id="Group_11" data-name="Group 11">
        <rect id="Rectangle_8" data-name="Rectangle 8" width="5.519" height="0.85"  stroke-width="0.5"/>
      </g>
    </g>
    <g id="Group_14" data-name="Group 14" transform="translate(-2.021 10.054)">
      <g id="Group_13" data-name="Group 13">
        <rect id="Rectangle_9" data-name="Rectangle 9" width="5.519" height="0.85" stroke-width="0.5"/>
      </g>
    </g>
    <g id="Group_16" data-name="Group 16" transform="translate(14.921 14.919)">
      <g id="Group_15" data-name="Group 15" transform="translate(0 0)">
        <rect id="Rectangle_10" data-name="Rectangle 10" width="0.85" height="5.519" transform="translate(0 0.601) rotate(-45)"  stroke-width="0.5"/>
      </g>
    </g>
    <g id="Group_18" data-name="Group 18" transform="translate(1.532 1.535)">
      <g id="Group_17" data-name="Group 17" transform="translate(0 0)">
        <rect id="Rectangle_11" data-name="Rectangle 11" width="0.85" height="5.519" transform="translate(0 0.601) rotate(-45)" stroke-width="0.5"/>
      </g>
    </g>
  </g>
</svg>
