<svg xmlns="http://www.w3.org/2000/svg" width="16.09" height="13.487" viewBox="0 0 16.09 13.487">
  <g id="Group_65" data-name="Group 65" transform="translate(-76.589 -610.796)">
    <g id="Group_62" data-name="Group 62" transform="translate(76.589 610.796)">
      <g id="Group_42" data-name="Group 42" transform="translate(0 0)">
        <path id="Path_5" data-name="Path 5" d="M60.472,382.85s-3.072,4.526-3.072,5.994a3.072,3.072,0,1,0,6.144,0C63.544,387.368,60.472,382.85,60.472,382.85Zm-.007,7.838a1.842,1.842,0,0,1-1.843-1.843,11.95,11.95,0,0,1,1.843-3.8,11.95,11.95,0,0,1,1.843,3.8A1.842,1.842,0,0,1,60.465,390.688Z" transform="translate(-57.4 -382.85)" />
      </g>
    </g>
    <g id="Group_64" data-name="Group 64" transform="translate(86.535 615.216)">
      <g id="Group_42-2" data-name="Group 42" transform="translate(0 0)">
        <path id="Path_5-2" data-name="Path 5" d="M60.472,382.85s-3.072,4.526-3.072,5.994a3.072,3.072,0,1,0,6.144,0C63.544,387.368,60.472,382.85,60.472,382.85Zm-.007,7.838a1.842,1.842,0,0,1-1.843-1.843,11.95,11.95,0,0,1,1.843-3.8,11.95,11.95,0,0,1,1.843,3.8A1.842,1.842,0,0,1,60.465,390.688Z" transform="translate(-57.4 -382.85)" />
      </g>
    </g>
  </g>
</svg>
