<svg xmlns="http://www.w3.org/2000/svg" width="29.475" height="22.853" viewBox="0 0 29.475 22.853">
  <path id="_007-wind" data-name="007-wind" d="M24.419,22.613c-.094,0-.186,0-.278-.006L4.91,22.613a.613.613,0,1,1,0-1.226l19.258-.006c.1,0,.176.006.252.006A5.227,5.227,0,1,0,19.6,18.2a.613.613,0,0,1-1.128.48,6.458,6.458,0,1,1,5.945,3.934Zm9.351,5.5a4.448,4.448,0,0,0-4.443-4.443c-.064,0-.128,0-.165,0l-24.253,0a.613.613,0,0,0,0,1.226l24.279,0,.139,0a3.214,3.214,0,1,1-2.963,1.961.613.613,0,0,0-1.128-.48,4.4,4.4,0,0,0-.352,1.736,4.443,4.443,0,0,0,8.886,0ZM4.909,20.22l7.183,0,.14,0A3.551,3.551,0,1,0,8.96,18.055a.613.613,0,0,0,1.128-.48,2.329,2.329,0,1,1,2.145,1.419l-.127,0-7.2,0a.613.613,0,1,0,0,1.226ZM14.2,26.757a.612.612,0,0,0-.613-.613H4.909a.613.613,0,0,0,0,1.226h8.682A.612.612,0,0,0,14.2,26.757Z" transform="translate(-4.296 -9.699)" />
</svg>
